<mxfile host="app.diagrams.net" modified="2023-12-14T15:23:55.502Z" agent="Mozilla/5.0 (Windows NT 10.0; Win64; x64) AppleWebKit/537.36 (KHTML, like Gecko) Chrome/120.0.0.0 Safari/537.36 Edg/120.0.0.0" etag="ypuPY3b7YHxHtjMG3QEX" version="22.1.8" type="device">
  <diagram name="Pagina-1" id="6ebKSwHgrZWEVFDDrTTQ">
    <mxGraphModel dx="3320" dy="1420" grid="1" gridSize="10" guides="1" tooltips="1" connect="1" arrows="1" fold="1" page="1" pageScale="1" pageWidth="4681" pageHeight="3300" math="0" shadow="0">
      <root>
        <mxCell id="0" />
        <mxCell id="1" parent="0" />
        <mxCell id="kevgRXuQHrOdtCCWnZsS-1" style="edgeStyle=orthogonalEdgeStyle;rounded=1;orthogonalLoop=1;jettySize=auto;html=1;exitX=1;exitY=0;exitDx=0;exitDy=0;entryX=0.5;entryY=1;entryDx=0;entryDy=0;endArrow=block;fontSize=13;strokeColor=#3a414a;strokeWidth=0.8;arcSize=12;startArrow=none;endFill=1;" parent="1" source="R9qcSIOGfT1Ncwx8mGfi-1" target="R9qcSIOGfT1Ncwx8mGfi-16" edge="1">
          <mxGeometry relative="1" as="geometry">
            <Array as="points">
              <mxPoint x="1047.3600000000001" y="330" />
              <mxPoint x="1102.3600000000001" y="330" />
            </Array>
          </mxGeometry>
        </mxCell>
        <mxCell id="kevgRXuQHrOdtCCWnZsS-2" value="elec:hasVIN" style="edgeLabel;html=1;align=center;verticalAlign=middle;resizable=0;points=[];fontStyle=1;fontSize=13.3;fontColor=#333333;" parent="kevgRXuQHrOdtCCWnZsS-1" vertex="1" connectable="0">
          <mxGeometry x="0.255" relative="1" as="geometry">
            <mxPoint x="-19" as="offset" />
          </mxGeometry>
        </mxCell>
        <mxCell id="R9qcSIOGfT1Ncwx8mGfi-1" value="elec:Car" style="html=1;overflow=block;blockSpacing=1;whiteSpace=wrap;ellipse;fontSize=16.7;spacing=3.8;strokeColor=default;fillOpacity=100;rounded=1;absoluteArcSize=1;arcSize=9;fillColor=#edf5ff;strokeWidth=NaN;lucidId=Os1O2qnXkTLK;" parent="1" vertex="1">
          <mxGeometry x="970.36" y="370" width="90" height="90" as="geometry" />
        </mxCell>
        <mxCell id="R9qcSIOGfT1Ncwx8mGfi-2" value="" style="html=1;jettySize=18;whiteSpace=wrap;fontSize=13;strokeColor=#3a414a;strokeOpacity=100;strokeWidth=0.8;rounded=1;arcSize=12;edgeStyle=orthogonalEdgeStyle;startArrow=none;endArrow=block;endFill=1;exitX=1.004;exitY=0.5;exitPerimeter=0;entryX=-0.004;entryY=0.5;entryPerimeter=0;lucidId=1s1Ouu4uFood;" parent="1" source="R9qcSIOGfT1Ncwx8mGfi-1" target="R9qcSIOGfT1Ncwx8mGfi-4" edge="1">
          <mxGeometry width="100" height="100" relative="1" as="geometry">
            <Array as="points" />
          </mxGeometry>
        </mxCell>
        <mxCell id="R9qcSIOGfT1Ncwx8mGfi-3" value="elec:hasModelYear" style="text;html=1;resizable=0;labelBackgroundColor=default;align=center;verticalAlign=middle;fontStyle=1;fontColor=#333333;fontSize=13.3;" parent="R9qcSIOGfT1Ncwx8mGfi-2" vertex="1">
          <mxGeometry x="-0.2734198802061023" relative="1" as="geometry" />
        </mxCell>
        <mxCell id="R9qcSIOGfT1Ncwx8mGfi-4" value="elec:&lt;br&gt;ModelYear" style="html=1;overflow=block;blockSpacing=1;whiteSpace=wrap;ellipse;fontSize=16.7;spacing=3.8;strokeColor=default;fillOpacity=100;rounded=1;absoluteArcSize=1;arcSize=9;fillColor=#edf5ff;strokeWidth=NaN;lucidId=1s1OTW7Ci2Y1;" parent="1" vertex="1">
          <mxGeometry x="1270.36" y="370" width="90" height="90" as="geometry" />
        </mxCell>
        <mxCell id="R9qcSIOGfT1Ncwx8mGfi-5" value="" style="html=1;jettySize=18;whiteSpace=wrap;fontSize=13;strokeColor=#3a414a;strokeOpacity=100;strokeWidth=0.8;rounded=1;arcSize=12;edgeStyle=orthogonalEdgeStyle;startArrow=none;endArrow=block;endFill=1;exitX=1.004;exitY=0.5;exitPerimeter=0;entryX=0;entryY=0.5;lucidId=it1O_J1TxxnW;entryDx=0;entryDy=0;" parent="1" source="R9qcSIOGfT1Ncwx8mGfi-4" target="35qdhlxiOfRnaW9zcAuj-1" edge="1">
          <mxGeometry width="100" height="100" relative="1" as="geometry">
            <Array as="points" />
            <mxPoint x="1479.9999999999998" y="415" as="targetPoint" />
          </mxGeometry>
        </mxCell>
        <mxCell id="R9qcSIOGfT1Ncwx8mGfi-6" value="elec:hasYear" style="text;html=1;resizable=0;labelBackgroundColor=default;align=center;verticalAlign=middle;fontStyle=1;fontColor=#333333;fontSize=13.3;" parent="R9qcSIOGfT1Ncwx8mGfi-5" vertex="1">
          <mxGeometry x="-0.32405319135538957" relative="1" as="geometry">
            <mxPoint x="11" as="offset" />
          </mxGeometry>
        </mxCell>
        <mxCell id="R9qcSIOGfT1Ncwx8mGfi-8" value="" style="html=1;jettySize=18;whiteSpace=wrap;fontSize=13;strokeColor=#3a414a;strokeOpacity=100;strokeWidth=0.8;rounded=1;arcSize=12;edgeStyle=orthogonalEdgeStyle;startArrow=none;endArrow=block;endFill=1;exitX=0.5;exitY=-0.004;exitPerimeter=0;entryX=0.5;entryY=1.004;entryPerimeter=0;lucidId=ot1Ofiux3nKR;" parent="1" source="R9qcSIOGfT1Ncwx8mGfi-4" target="R9qcSIOGfT1Ncwx8mGfi-10" edge="1">
          <mxGeometry width="100" height="100" relative="1" as="geometry">
            <Array as="points" />
          </mxGeometry>
        </mxCell>
        <mxCell id="R9qcSIOGfT1Ncwx8mGfi-9" value="elec:ofModel" style="text;html=1;resizable=0;labelBackgroundColor=default;align=center;verticalAlign=middle;fontStyle=1;fontColor=#333333;fontSize=13.3;" parent="R9qcSIOGfT1Ncwx8mGfi-8" vertex="1">
          <mxGeometry relative="1" as="geometry" />
        </mxCell>
        <mxCell id="R9qcSIOGfT1Ncwx8mGfi-10" value="elec:Model" style="html=1;overflow=block;blockSpacing=1;whiteSpace=wrap;ellipse;fontSize=16.7;spacing=3.8;strokeColor=default;fillOpacity=100;rounded=1;absoluteArcSize=1;arcSize=9;fillColor=#edf5ff;strokeWidth=NaN;lucidId=ot1OwlmNDwQG;" parent="1" vertex="1">
          <mxGeometry x="1270.36" y="220" width="90" height="90" as="geometry" />
        </mxCell>
        <mxCell id="R9qcSIOGfT1Ncwx8mGfi-11" value="" style="html=1;jettySize=18;whiteSpace=wrap;fontSize=13;strokeColor=#3a414a;strokeOpacity=100;strokeWidth=0.8;rounded=1;arcSize=12;edgeStyle=orthogonalEdgeStyle;startArrow=none;endArrow=block;endFill=1;exitX=0.5;exitY=-0.004;exitPerimeter=0;entryX=0.5;entryY=1.004;entryPerimeter=0;lucidId=Ct1O5iaR3bhI;" parent="1" source="R9qcSIOGfT1Ncwx8mGfi-10" target="R9qcSIOGfT1Ncwx8mGfi-13" edge="1">
          <mxGeometry width="100" height="100" relative="1" as="geometry">
            <Array as="points" />
          </mxGeometry>
        </mxCell>
        <mxCell id="R9qcSIOGfT1Ncwx8mGfi-12" value="elec:madeBy" style="text;html=1;resizable=0;labelBackgroundColor=default;align=center;verticalAlign=middle;fontStyle=1;fontColor=#333333;fontSize=13.3;" parent="R9qcSIOGfT1Ncwx8mGfi-11" vertex="1">
          <mxGeometry x="-0.18734325125231144" relative="1" as="geometry" />
        </mxCell>
        <mxCell id="R9qcSIOGfT1Ncwx8mGfi-13" value="elec:Maker" style="html=1;overflow=block;blockSpacing=1;whiteSpace=wrap;ellipse;fontSize=16.7;spacing=3.8;strokeColor=default;fillOpacity=100;rounded=1;absoluteArcSize=1;arcSize=9;fillColor=#edf5ff;strokeWidth=1;lucidId=Ct1OrBrMs6CW;perimeterSpacing=0;gradientColor=none;" parent="1" vertex="1">
          <mxGeometry x="1270.36" y="70" width="90" height="90" as="geometry" />
        </mxCell>
        <mxCell id="R9qcSIOGfT1Ncwx8mGfi-16" value="VIN^^xsd:string" style="html=1;overflow=block;blockSpacing=1;whiteSpace=wrap;fontSize=16.7;spacing=9;strokeColor=default;rounded=1;absoluteArcSize=1;arcSize=9;fillColor=default;strokeWidth=1;lucidId=3t1OEM6T._IZ;fontColor=#333333;verticalAlign=middle;horizontal=1;" parent="1" vertex="1">
          <mxGeometry x="1030.3600000000001" y="250" width="144" height="30" as="geometry" />
        </mxCell>
        <mxCell id="R9qcSIOGfT1Ncwx8mGfi-20" value="" style="html=1;jettySize=18;whiteSpace=wrap;fontSize=13;strokeColor=#3a414a;strokeOpacity=100;strokeWidth=0.8;rounded=1;arcSize=12;edgeStyle=orthogonalEdgeStyle;startArrow=none;endArrow=block;endFill=1;entryX=0.5;entryY=1.012;entryPerimeter=0;lucidId=_u1O~x01ch-v;" parent="1" target="R9qcSIOGfT1Ncwx8mGfi-22" edge="1">
          <mxGeometry width="100" height="100" relative="1" as="geometry">
            <Array as="points" />
            <mxPoint x="985.36" y="380" as="sourcePoint" />
          </mxGeometry>
        </mxCell>
        <mxCell id="R9qcSIOGfT1Ncwx8mGfi-21" value="elec:hasRange" style="text;html=1;resizable=0;labelBackgroundColor=default;align=center;verticalAlign=middle;fontStyle=1;fontColor=#333333;fontSize=13.3;" parent="R9qcSIOGfT1Ncwx8mGfi-20" vertex="1">
          <mxGeometry x="0.21647760679977202" relative="1" as="geometry" />
        </mxCell>
        <mxCell id="R9qcSIOGfT1Ncwx8mGfi-22" value="range^^xsd:Integer" style="html=1;overflow=block;blockSpacing=1;whiteSpace=wrap;fontSize=16.7;spacing=9;strokeColor=default;rounded=1;absoluteArcSize=1;arcSize=9;fillColor=default;strokeWidth=1;lucidId=.u1OfOf~fiUd;fontColor=#333333;verticalAlign=middle;horizontal=1;" parent="1" vertex="1">
          <mxGeometry x="835.36" y="250" width="165" height="30" as="geometry" />
        </mxCell>
        <mxCell id="R9qcSIOGfT1Ncwx8mGfi-23" value="" style="html=1;jettySize=18;whiteSpace=wrap;fontSize=13;strokeColor=#3a414a;strokeOpacity=100;strokeWidth=0.8;rounded=1;arcSize=12;edgeStyle=orthogonalEdgeStyle;startArrow=none;endArrow=block;endFill=1;exitX=-0.004;exitY=0.5;exitPerimeter=0;entryX=1.004;entryY=0.5;entryPerimeter=0;lucidId=Ew1O.1Jr6tQS;" parent="1" source="R9qcSIOGfT1Ncwx8mGfi-1" target="R9qcSIOGfT1Ncwx8mGfi-25" edge="1">
          <mxGeometry width="100" height="100" relative="1" as="geometry">
            <Array as="points" />
          </mxGeometry>
        </mxCell>
        <mxCell id="R9qcSIOGfT1Ncwx8mGfi-24" value="elec:isRegisteredIn" style="text;html=1;resizable=0;labelBackgroundColor=default;align=center;verticalAlign=middle;fontStyle=1;fontColor=#333333;fontSize=13.3;" parent="R9qcSIOGfT1Ncwx8mGfi-23" vertex="1">
          <mxGeometry relative="1" as="geometry" />
        </mxCell>
        <mxCell id="R9qcSIOGfT1Ncwx8mGfi-25" value="elec:ZipCode" style="html=1;overflow=block;blockSpacing=1;whiteSpace=wrap;ellipse;fontSize=15;spacing=3.8;strokeColor=default;fillOpacity=100;rounded=1;absoluteArcSize=1;arcSize=9;fillColor=#fcfcca;strokeWidth=NaN;lucidId=Ew1OWQCflFgT;" parent="1" vertex="1">
          <mxGeometry x="603" y="370" width="90" height="90" as="geometry" />
        </mxCell>
        <mxCell id="R9qcSIOGfT1Ncwx8mGfi-26" value="" style="html=1;jettySize=18;whiteSpace=wrap;fontSize=13;strokeColor=#3a414a;strokeOpacity=100;strokeWidth=0.8;rounded=1;arcSize=12;edgeStyle=orthogonalEdgeStyle;startArrow=none;endArrow=block;endFill=1;exitX=0.5;exitY=1.004;exitPerimeter=0;entryX=0.5;entryY=-0.004;entryPerimeter=0;lucidId=Vw1Oxh8Qyr1-;" parent="1" source="R9qcSIOGfT1Ncwx8mGfi-25" target="R9qcSIOGfT1Ncwx8mGfi-28" edge="1">
          <mxGeometry width="100" height="100" relative="1" as="geometry">
            <Array as="points" />
          </mxGeometry>
        </mxCell>
        <mxCell id="R9qcSIOGfT1Ncwx8mGfi-27" value="elec:ofCity" style="text;html=1;resizable=0;labelBackgroundColor=default;align=center;verticalAlign=middle;fontStyle=1;fontColor=#333333;fontSize=13.3;" parent="R9qcSIOGfT1Ncwx8mGfi-26" vertex="1">
          <mxGeometry x="-0.18227992013741345" relative="1" as="geometry" />
        </mxCell>
        <mxCell id="R9qcSIOGfT1Ncwx8mGfi-28" value="elec:City" style="html=1;overflow=block;blockSpacing=1;whiteSpace=wrap;ellipse;fontSize=16.7;spacing=3.8;strokeColor=default;fillOpacity=100;rounded=1;absoluteArcSize=1;arcSize=9;fillColor=#fcfcca;strokeWidth=NaN;lucidId=Vw1Oo~C-vCxp;" parent="1" vertex="1">
          <mxGeometry x="603" y="535" width="90" height="90" as="geometry" />
        </mxCell>
        <mxCell id="R9qcSIOGfT1Ncwx8mGfi-29" value="" style="html=1;jettySize=18;whiteSpace=wrap;fontSize=13;strokeColor=#3a414a;strokeOpacity=100;strokeWidth=0.8;rounded=1;arcSize=12;edgeStyle=orthogonalEdgeStyle;startArrow=none;endArrow=block;endFill=1;exitX=0.5;exitY=1.004;exitPerimeter=0;entryX=0.5;entryY=-0.004;entryPerimeter=0;lucidId=-w1O87nsNx36;" parent="1" source="R9qcSIOGfT1Ncwx8mGfi-28" edge="1">
          <mxGeometry width="100" height="100" relative="1" as="geometry">
            <Array as="points" />
            <mxPoint x="648" y="699.6399999999999" as="targetPoint" />
          </mxGeometry>
        </mxCell>
        <mxCell id="R9qcSIOGfT1Ncwx8mGfi-30" value="elec:belongsTo" style="text;html=1;resizable=0;labelBackgroundColor=default;align=center;verticalAlign=middle;fontStyle=1;fontColor=#333333;fontSize=13.3;" parent="R9qcSIOGfT1Ncwx8mGfi-29" vertex="1">
          <mxGeometry x="-0.1232110425202213" relative="1" as="geometry" />
        </mxCell>
        <mxCell id="R9qcSIOGfT1Ncwx8mGfi-31" value="elec:County" style="html=1;overflow=block;blockSpacing=1;whiteSpace=wrap;ellipse;fontSize=15;spacing=3.8;strokeColor=default;fillOpacity=100;rounded=1;absoluteArcSize=1;arcSize=9;fillColor=#fcfcca;strokeWidth=NaN;lucidId=-w1OLK29v8BK;" parent="1" vertex="1">
          <mxGeometry x="603" y="700" width="90" height="90" as="geometry" />
        </mxCell>
        <mxCell id="R9qcSIOGfT1Ncwx8mGfi-32" value="elec:Station" style="html=1;overflow=block;blockSpacing=1;whiteSpace=wrap;ellipse;fontSize=15;spacing=3.8;strokeColor=default;fillOpacity=100;rounded=1;absoluteArcSize=1;arcSize=9;fillColor=#e3fae3;strokeWidth=NaN;lucidId=rx1O~R7pykx_;" parent="1" vertex="1">
          <mxGeometry x="260" y="370" width="90" height="90" as="geometry" />
        </mxCell>
        <mxCell id="R9qcSIOGfT1Ncwx8mGfi-33" value="" style="html=1;jettySize=18;whiteSpace=wrap;fontSize=13;strokeColor=#3a414a;strokeOpacity=100;strokeWidth=0.8;rounded=1;arcSize=12;edgeStyle=orthogonalEdgeStyle;startArrow=none;endArrow=block;endFill=1;exitX=1.004;exitY=0.5;exitPerimeter=0;entryX=-0.004;entryY=0.5;entryPerimeter=0;lucidId=Dx1OYmT3YGP5;" parent="1" source="R9qcSIOGfT1Ncwx8mGfi-32" target="R9qcSIOGfT1Ncwx8mGfi-25" edge="1">
          <mxGeometry width="100" height="100" relative="1" as="geometry">
            <Array as="points" />
          </mxGeometry>
        </mxCell>
        <mxCell id="R9qcSIOGfT1Ncwx8mGfi-34" value="elec:locatedIn" style="text;html=1;resizable=0;labelBackgroundColor=default;align=center;verticalAlign=middle;fontStyle=1;fontColor=#333333;fontSize=13.3;" parent="R9qcSIOGfT1Ncwx8mGfi-33" vertex="1">
          <mxGeometry relative="1" as="geometry" />
        </mxCell>
        <mxCell id="R9qcSIOGfT1Ncwx8mGfi-35" value="" style="html=1;jettySize=18;whiteSpace=wrap;fontSize=13;strokeColor=#3a414a;strokeOpacity=100;strokeWidth=0.8;rounded=1;arcSize=12;edgeStyle=orthogonalEdgeStyle;startArrow=none;endArrow=block;endFill=1;exitX=0.508;exitY=-0.004;exitPerimeter=0;entryX=0.505;entryY=1.012;entryPerimeter=0;lucidId=Wx1O5GCra6RN;" parent="1" source="R9qcSIOGfT1Ncwx8mGfi-25" target="R9qcSIOGfT1Ncwx8mGfi-37" edge="1">
          <mxGeometry width="100" height="100" relative="1" as="geometry">
            <Array as="points" />
          </mxGeometry>
        </mxCell>
        <mxCell id="R9qcSIOGfT1Ncwx8mGfi-36" value="elec:hasAgi" style="text;html=1;resizable=0;labelBackgroundColor=default;align=center;verticalAlign=middle;fontStyle=1;fontColor=#333333;fontSize=13.3;" parent="R9qcSIOGfT1Ncwx8mGfi-35" vertex="1">
          <mxGeometry relative="1" as="geometry">
            <mxPoint x="-1" y="7" as="offset" />
          </mxGeometry>
        </mxCell>
        <mxCell id="R9qcSIOGfT1Ncwx8mGfi-37" value="AGI^^xsd:Integer" style="html=1;overflow=block;blockSpacing=1;whiteSpace=wrap;fontSize=16.7;spacing=9;strokeColor=default;rounded=1;absoluteArcSize=1;arcSize=9;fillColor=default;strokeWidth=1;lucidId=Xx1OfmO..szG;fontColor=#333333;verticalAlign=middle;horizontal=1;" parent="1" vertex="1">
          <mxGeometry x="573" y="190" width="150" height="30" as="geometry" />
        </mxCell>
        <mxCell id="R9qcSIOGfT1Ncwx8mGfi-38" value="" style="html=1;jettySize=18;whiteSpace=wrap;fontSize=13;strokeColor=#3a414a;strokeOpacity=100;strokeWidth=0.8;rounded=1;arcSize=12;edgeStyle=orthogonalEdgeStyle;startArrow=none;endArrow=block;endFill=1;exitX=0.5;exitY=1.004;exitPerimeter=0;entryX=0.5;entryY=-0.012;entryPerimeter=0;lucidId=6B1OSi53PP30;" parent="1" source="R9qcSIOGfT1Ncwx8mGfi-4" target="R9qcSIOGfT1Ncwx8mGfi-40" edge="1">
          <mxGeometry width="100" height="100" relative="1" as="geometry">
            <Array as="points" />
          </mxGeometry>
        </mxCell>
        <mxCell id="R9qcSIOGfT1Ncwx8mGfi-39" value="elec:hasMSRP" style="text;html=1;resizable=0;labelBackgroundColor=default;align=center;verticalAlign=middle;fontStyle=1;fontColor=#333333;fontSize=13.3;" parent="R9qcSIOGfT1Ncwx8mGfi-38" vertex="1">
          <mxGeometry x="-0.3151560038782376" relative="1" as="geometry" />
        </mxCell>
        <mxCell id="R9qcSIOGfT1Ncwx8mGfi-40" value="MSRP^^xsd:Integer" style="html=1;overflow=block;blockSpacing=1;whiteSpace=wrap;fontSize=16.7;spacing=9;strokeColor=default;rounded=1;absoluteArcSize=1;arcSize=9;fillColor=default;strokeWidth=1;lucidId=7B1Od-MZ6ZxI;fontColor=#333333;verticalAlign=middle;horizontal=1;" parent="1" vertex="1">
          <mxGeometry x="1225.36" y="535" width="180" height="30" as="geometry" />
        </mxCell>
        <mxCell id="R9qcSIOGfT1Ncwx8mGfi-41" value="" style="html=1;jettySize=18;whiteSpace=wrap;fontSize=13;strokeColor=#3a414a;strokeOpacity=100;strokeWidth=0.8;rounded=1;arcSize=12;edgeStyle=orthogonalEdgeStyle;startArrow=none;endArrow=block;endFill=1;exitX=0;exitY=0;entryX=0.5;entryY=1.012;entryPerimeter=0;lucidId=RF1OCfXK_F4R;exitDx=0;exitDy=0;" parent="1" source="R9qcSIOGfT1Ncwx8mGfi-32" target="R9qcSIOGfT1Ncwx8mGfi-43" edge="1">
          <mxGeometry width="100" height="100" relative="1" as="geometry">
            <Array as="points" />
          </mxGeometry>
        </mxCell>
        <mxCell id="R9qcSIOGfT1Ncwx8mGfi-42" value="elec:hasName" style="text;html=1;resizable=0;labelBackgroundColor=default;align=center;verticalAlign=middle;fontStyle=1;fontColor=#333333;fontSize=13.3;" parent="R9qcSIOGfT1Ncwx8mGfi-41" vertex="1">
          <mxGeometry x="-0.2958020110584042" relative="1" as="geometry">
            <mxPoint x="-58" y="-17" as="offset" />
          </mxGeometry>
        </mxCell>
        <mxCell id="R9qcSIOGfT1Ncwx8mGfi-43" value="name^^xsd:String" style="html=1;overflow=block;blockSpacing=1;whiteSpace=wrap;fontSize=16.7;spacing=9;rounded=1;absoluteArcSize=1;arcSize=9;strokeWidth=1;lucidId=SF1OhaQ1grFW;fillColor=default;fontColor=#333333;strokeColor=default;verticalAlign=middle;horizontal=1;" parent="1" vertex="1">
          <mxGeometry x="140" y="250" width="150" height="30" as="geometry" />
        </mxCell>
        <mxCell id="R9qcSIOGfT1Ncwx8mGfi-44" value="" style="html=1;jettySize=18;whiteSpace=wrap;fontSize=13;strokeColor=#3a414a;strokeOpacity=100;strokeWidth=0.8;rounded=1;arcSize=12;edgeStyle=orthogonalEdgeStyle;startArrow=block;startFill=1;endArrow=none;exitX=0.075;exitY=0.771;exitPerimeter=0;entryX=0.5;entryY=-0.004;entryPerimeter=0;lucidId=eI1O_Iygyy8d;" parent="1" source="R9qcSIOGfT1Ncwx8mGfi-1" target="R9qcSIOGfT1Ncwx8mGfi-46" edge="1">
          <mxGeometry width="100" height="100" relative="1" as="geometry">
            <Array as="points" />
          </mxGeometry>
        </mxCell>
        <mxCell id="R9qcSIOGfT1Ncwx8mGfi-45" value="rdfs:subClassOf" style="text;html=1;resizable=0;labelBackgroundColor=default;align=center;verticalAlign=middle;fontStyle=1;fontColor=#333333;fontSize=13.3;" parent="R9qcSIOGfT1Ncwx8mGfi-44" vertex="1">
          <mxGeometry x="0.4008423599611588" relative="1" as="geometry" />
        </mxCell>
        <mxCell id="R9qcSIOGfT1Ncwx8mGfi-46" value="elec:BEV" style="html=1;overflow=block;blockSpacing=1;whiteSpace=wrap;ellipse;fontSize=16.7;spacing=3.8;strokeColor=default;fillOpacity=100;rounded=1;absoluteArcSize=1;arcSize=9;fillColor=#edf5ff;strokeWidth=NaN;lucidId=eI1O9qz4zxc3;" parent="1" vertex="1">
          <mxGeometry x="835.36" y="505" width="90" height="90" as="geometry" />
        </mxCell>
        <mxCell id="R9qcSIOGfT1Ncwx8mGfi-47" value="" style="html=1;jettySize=18;whiteSpace=wrap;fontSize=13;strokeColor=#3a414a;strokeOpacity=100;strokeWidth=0.8;rounded=1;arcSize=12;edgeStyle=orthogonalEdgeStyle;startArrow=block;startFill=1;endArrow=none;entryX=0.5;entryY=0;lucidId=NI1OuKBxsP~g;entryDx=0;entryDy=0;" parent="1" source="R9qcSIOGfT1Ncwx8mGfi-32" target="Asnf5PWVBuTiNA6fuec6-4" edge="1">
          <mxGeometry width="100" height="100" relative="1" as="geometry">
            <Array as="points">
              <mxPoint x="290" y="510" />
              <mxPoint x="225" y="510" />
            </Array>
            <mxPoint x="270.02" y="381.0400000000001" as="sourcePoint" />
            <mxPoint x="230" y="535.0000000000001" as="targetPoint" />
          </mxGeometry>
        </mxCell>
        <mxCell id="R9qcSIOGfT1Ncwx8mGfi-48" value="rdfs:subClassO&lt;span style=&quot;color: rgb(51, 51, 51);&quot;&gt;f&lt;/span&gt;" style="text;html=1;resizable=0;labelBackgroundColor=default;align=center;verticalAlign=middle;fontStyle=1;fontSize=13.3;" parent="R9qcSIOGfT1Ncwx8mGfi-47" vertex="1">
          <mxGeometry x="0.8069094236723289" relative="1" as="geometry">
            <mxPoint x="15" y="-16" as="offset" />
          </mxGeometry>
        </mxCell>
        <mxCell id="R9qcSIOGfT1Ncwx8mGfi-49" value="elec:PHEV" style="html=1;overflow=block;blockSpacing=1;whiteSpace=wrap;ellipse;fontSize=16.7;spacing=3.8;strokeColor=default;fillOpacity=100;rounded=1;absoluteArcSize=1;arcSize=9;fillColor=#edf5ff;strokeWidth=NaN;lucidId=NI1OlC09T_vV;" parent="1" vertex="1">
          <mxGeometry x="910.36" y="625" width="90" height="90" as="geometry" />
        </mxCell>
        <mxCell id="R9qcSIOGfT1Ncwx8mGfi-50" value="" style="html=1;jettySize=18;whiteSpace=wrap;fontSize=13;strokeColor=#3a414a;strokeOpacity=100;strokeWidth=0.8;rounded=1;arcSize=12;edgeStyle=orthogonalEdgeStyle;startArrow=block;startFill=1;endArrow=none;exitX=0.71;exitY=0.958;exitPerimeter=0;entryX=0.5;entryY=-0.004;entryPerimeter=0;lucidId=6I1O4U0I6-T0;" parent="1" source="R9qcSIOGfT1Ncwx8mGfi-1" target="R9qcSIOGfT1Ncwx8mGfi-52" edge="1">
          <mxGeometry width="100" height="100" relative="1" as="geometry">
            <Array as="points" />
          </mxGeometry>
        </mxCell>
        <mxCell id="R9qcSIOGfT1Ncwx8mGfi-51" value="rdfs:subClassO&lt;span style=&quot;&quot;&gt;f&lt;/span&gt;" style="text;html=1;resizable=0;labelBackgroundColor=default;align=center;verticalAlign=middle;fontStyle=1;fontSize=13.3;fontColor=#333333;" parent="R9qcSIOGfT1Ncwx8mGfi-50" vertex="1">
          <mxGeometry x="0.7941117615796491" relative="1" as="geometry" />
        </mxCell>
        <mxCell id="R9qcSIOGfT1Ncwx8mGfi-52" value="elec:&lt;br&gt;CleanCar" style="html=1;overflow=block;blockSpacing=1;whiteSpace=wrap;ellipse;fontSize=16.7;spacing=3.8;strokeColor=default;fillOpacity=100;rounded=1;absoluteArcSize=1;arcSize=9;fillColor=#edf5ff;strokeWidth=NaN;lucidId=6I1OSQpG-oj7;" parent="1" vertex="1">
          <mxGeometry x="1030.3600000000001" y="625" width="90" height="90" as="geometry" />
        </mxCell>
        <mxCell id="R9qcSIOGfT1Ncwx8mGfi-53" value="" style="html=1;jettySize=18;whiteSpace=wrap;fontSize=13;strokeColor=#3a414a;strokeOpacity=100;strokeWidth=0.8;rounded=1;arcSize=12;edgeStyle=orthogonalEdgeStyle;startArrow=block;startFill=1;endArrow=none;exitX=0.931;exitY=0.76;exitPerimeter=0;entryX=0.5;entryY=-0.004;entryPerimeter=0;lucidId=bJ1O8Z8VCAd9;" parent="1" source="R9qcSIOGfT1Ncwx8mGfi-1" target="R9qcSIOGfT1Ncwx8mGfi-55" edge="1">
          <mxGeometry width="100" height="100" relative="1" as="geometry">
            <Array as="points" />
          </mxGeometry>
        </mxCell>
        <mxCell id="R9qcSIOGfT1Ncwx8mGfi-54" value="rdfs:subClassO&lt;span style=&quot;&quot;&gt;f&lt;/span&gt;" style="text;html=1;resizable=0;labelBackgroundColor=default;align=center;verticalAlign=middle;fontStyle=1;fontSize=13.3;fontColor=#333333;" parent="R9qcSIOGfT1Ncwx8mGfi-53" vertex="1">
          <mxGeometry x="0.42077378396172405" relative="1" as="geometry" />
        </mxCell>
        <mxCell id="R9qcSIOGfT1Ncwx8mGfi-55" value="elec:&lt;br&gt;NotCleanCar" style="html=1;overflow=block;blockSpacing=1;whiteSpace=wrap;ellipse;fontSize=13.3;spacing=3.8;strokeColor=default;fillOpacity=100;rounded=1;absoluteArcSize=1;arcSize=9;fillColor=#edf5ff;strokeWidth=NaN;lucidId=bJ1OlrKJahhv;" parent="1" vertex="1">
          <mxGeometry x="1105.3600000000001" y="505" width="90" height="90" as="geometry" />
        </mxCell>
        <mxCell id="Asnf5PWVBuTiNA6fuec6-4" value="&lt;font style=&quot;font-size: 13px;&quot;&gt;elec:&lt;br&gt;PublicStation&lt;/font&gt;" style="html=1;overflow=block;blockSpacing=1;whiteSpace=wrap;ellipse;fontSize=16.7;spacing=3.8;strokeColor=default;fillOpacity=100;rounded=1;absoluteArcSize=1;arcSize=9;fillColor=#e3fae3;strokeWidth=NaN;lucidId=rx1O~R7pykx_;" parent="1" vertex="1">
          <mxGeometry x="180" y="560" width="90" height="90" as="geometry" />
        </mxCell>
        <mxCell id="Asnf5PWVBuTiNA6fuec6-5" value="&lt;font style=&quot;font-size: 13px;&quot;&gt;elec:&lt;br&gt;PrivateStation&lt;/font&gt;" style="html=1;overflow=block;blockSpacing=1;whiteSpace=wrap;ellipse;fontSize=16.7;spacing=3.8;strokeColor=default;fillOpacity=100;rounded=1;absoluteArcSize=1;arcSize=9;fillColor=#e3fae3;strokeWidth=NaN;lucidId=rx1O~R7pykx_;" parent="1" vertex="1">
          <mxGeometry x="330" y="560" width="90" height="90" as="geometry" />
        </mxCell>
        <mxCell id="Asnf5PWVBuTiNA6fuec6-8" value="" style="html=1;jettySize=18;whiteSpace=wrap;fontSize=13;strokeColor=#3a414a;strokeOpacity=100;strokeWidth=0.8;rounded=1;arcSize=12;edgeStyle=orthogonalEdgeStyle;startArrow=block;startFill=1;endArrow=none;exitX=0.676;exitY=0.996;exitPerimeter=0;entryX=0.5;entryY=0;lucidId=NI1OuKBxsP~g;exitDx=0;exitDy=0;entryDx=0;entryDy=0;" parent="1" source="R9qcSIOGfT1Ncwx8mGfi-32" target="Asnf5PWVBuTiNA6fuec6-5" edge="1">
          <mxGeometry width="100" height="100" relative="1" as="geometry">
            <Array as="points">
              <mxPoint x="321" y="510" />
              <mxPoint x="375" y="510" />
            </Array>
            <mxPoint x="360" y="498" as="sourcePoint" />
            <mxPoint x="320" y="652" as="targetPoint" />
          </mxGeometry>
        </mxCell>
        <mxCell id="Asnf5PWVBuTiNA6fuec6-9" value="rdfs:subClassO&lt;span style=&quot;&quot;&gt;f&lt;/span&gt;" style="text;html=1;resizable=0;labelBackgroundColor=default;align=center;verticalAlign=middle;fontStyle=1;fontSize=13.3;fontColor=#333333;" parent="Asnf5PWVBuTiNA6fuec6-8" vertex="1">
          <mxGeometry x="0.8069094236723289" relative="1" as="geometry">
            <mxPoint x="-5" y="-17" as="offset" />
          </mxGeometry>
        </mxCell>
        <mxCell id="CU4AN1IjZ7_TAcXfEEWa-3" value="" style="html=1;jettySize=18;whiteSpace=wrap;fontSize=13;strokeColor=#3a414a;strokeOpacity=100;strokeWidth=0.8;rounded=1;arcSize=12;edgeStyle=orthogonalEdgeStyle;startArrow=block;startFill=1;endArrow=none;exitX=0.278;exitY=0.951;exitPerimeter=0;entryX=0.5;entryY=0;lucidId=6I1O4U0I6-T0;exitDx=0;exitDy=0;entryDx=0;entryDy=0;" parent="1" source="R9qcSIOGfT1Ncwx8mGfi-1" target="R9qcSIOGfT1Ncwx8mGfi-49" edge="1">
          <mxGeometry width="100" height="100" relative="1" as="geometry">
            <Array as="points" />
            <mxPoint x="1054.3600000000001" y="476" as="sourcePoint" />
            <mxPoint x="1095.3600000000001" y="630" as="targetPoint" />
          </mxGeometry>
        </mxCell>
        <mxCell id="CU4AN1IjZ7_TAcXfEEWa-4" value="rdfs:subClassO&lt;span style=&quot;&quot;&gt;f&lt;/span&gt;" style="text;html=1;resizable=0;labelBackgroundColor=default;align=center;verticalAlign=middle;fontStyle=1;fontSize=13.3;fontColor=#333333;" parent="CU4AN1IjZ7_TAcXfEEWa-3" vertex="1">
          <mxGeometry x="0.7941117615796491" relative="1" as="geometry" />
        </mxCell>
        <mxCell id="35qdhlxiOfRnaW9zcAuj-1" value="year^^xsd:gYear" style="html=1;overflow=block;blockSpacing=1;whiteSpace=wrap;fontSize=16.7;spacing=9;strokeColor=default;rounded=1;absoluteArcSize=1;arcSize=9;fillColor=default;strokeWidth=1;lucidId=7B1Od-MZ6ZxI;fontColor=#333333;verticalAlign=middle;horizontal=1;" parent="1" vertex="1">
          <mxGeometry x="1460" y="400" width="180" height="30" as="geometry" />
        </mxCell>
        <mxCell id="yIbxNp6oK5FwR0dYphX5-1" value="&lt;div&gt;PREFIX elec: &amp;lt;http://www.dei.unipd.it/~poor6/db2/ontologies/2023/electricCars#&amp;gt;&lt;/div&gt;&lt;div&gt;PREFIX rdfs: &amp;lt;http://www.w3.org/2000/01/rdf-schema#&amp;gt;&lt;/div&gt;" style="rounded=0;whiteSpace=wrap;html=1;fillColor=none;strokeColor=none;align=left;" parent="1" vertex="1">
          <mxGeometry x="190" y="100" width="490" height="60" as="geometry" />
        </mxCell>
        <mxCell id="BBewPxrN95J-RgbCUqSQ-8" value="" style="html=1;jettySize=18;whiteSpace=wrap;fontSize=13;strokeColor=#3a414a;strokeOpacity=100;strokeWidth=0.8;rounded=1;arcSize=12;edgeStyle=orthogonalEdgeStyle;startArrow=none;endArrow=block;endFill=1;exitX=1;exitY=0;entryX=0.5;entryY=1.012;entryPerimeter=0;lucidId=RF1OCfXK_F4R;exitDx=0;exitDy=0;" parent="1" source="R9qcSIOGfT1Ncwx8mGfi-32" target="BBewPxrN95J-RgbCUqSQ-10" edge="1">
          <mxGeometry width="100" height="100" relative="1" as="geometry">
            <Array as="points" />
            <mxPoint x="415" y="325" as="sourcePoint" />
          </mxGeometry>
        </mxCell>
        <mxCell id="BBewPxrN95J-RgbCUqSQ-9" value="elec:hasAddress" style="text;html=1;resizable=0;labelBackgroundColor=default;align=center;verticalAlign=middle;fontStyle=1;fontColor=#333333;fontSize=13.3;" parent="BBewPxrN95J-RgbCUqSQ-8" vertex="1">
          <mxGeometry x="-0.2958020110584042" relative="1" as="geometry">
            <mxPoint x="53" y="-20" as="offset" />
          </mxGeometry>
        </mxCell>
        <mxCell id="BBewPxrN95J-RgbCUqSQ-10" value="address^^xsd:String" style="html=1;overflow=block;blockSpacing=1;whiteSpace=wrap;fontSize=16.7;spacing=9;rounded=1;absoluteArcSize=1;arcSize=9;strokeWidth=1;lucidId=SF1OhaQ1grFW;fillColor=default;fontColor=#333333;strokeColor=default;verticalAlign=middle;horizontal=1;" parent="1" vertex="1">
          <mxGeometry x="300" y="250" width="170" height="30" as="geometry" />
        </mxCell>
        <mxCell id="7NIHptc-WmO7eENYxRa7-1" value="" style="html=1;overflow=block;blockSpacing=1;whiteSpace=wrap;fontSize=16.7;spacing=9;strokeColor=#FFFFFF;rounded=1;absoluteArcSize=1;arcSize=9;fillColor=default;strokeWidth=1;lucidId=7B1Od-MZ6ZxI;fontColor=#333333;verticalAlign=middle;horizontal=1;" parent="1" vertex="1">
          <mxGeometry x="470" y="800" width="180" height="30" as="geometry" />
        </mxCell>
        <mxCell id="7NIHptc-WmO7eENYxRa7-2" value="" style="html=1;jettySize=18;whiteSpace=wrap;fontSize=13;strokeColor=#3a414a;strokeOpacity=100;strokeWidth=0.8;rounded=1;arcSize=12;edgeStyle=orthogonalEdgeStyle;startArrow=none;endArrow=block;endFill=1;exitX=-0.02;exitY=0.338;entryX=0.5;entryY=1.012;entryPerimeter=0;lucidId=RF1OCfXK_F4R;exitDx=0;exitDy=0;exitPerimeter=0;" parent="1" source="R9qcSIOGfT1Ncwx8mGfi-32" target="7NIHptc-WmO7eENYxRa7-4" edge="1">
          <mxGeometry width="100" height="100" relative="1" as="geometry">
            <Array as="points" />
            <mxPoint x="153" y="493" as="sourcePoint" />
          </mxGeometry>
        </mxCell>
        <mxCell id="7NIHptc-WmO7eENYxRa7-3" value="elec:hasLatitude" style="text;html=1;resizable=0;labelBackgroundColor=default;align=center;verticalAlign=middle;fontStyle=1;fontColor=#333333;fontSize=13.3;" parent="7NIHptc-WmO7eENYxRa7-2" vertex="1">
          <mxGeometry x="-0.2958020110584042" relative="1" as="geometry">
            <mxPoint x="-71" y="-17" as="offset" />
          </mxGeometry>
        </mxCell>
        <mxCell id="7NIHptc-WmO7eENYxRa7-4" value="latitude^^xsd:float" style="html=1;overflow=block;blockSpacing=1;whiteSpace=wrap;fontSize=16.7;spacing=9;rounded=1;absoluteArcSize=1;arcSize=9;strokeWidth=1;lucidId=SF1OhaQ1grFW;fillColor=default;fontColor=#333333;strokeColor=default;verticalAlign=middle;horizontal=1;" parent="1" vertex="1">
          <mxGeometry x="40" y="330" width="150" height="30" as="geometry" />
        </mxCell>
        <mxCell id="7NIHptc-WmO7eENYxRa7-6" value="longitude^^xsd:float" style="html=1;overflow=block;blockSpacing=1;whiteSpace=wrap;fontSize=16.7;spacing=9;rounded=1;absoluteArcSize=1;arcSize=9;strokeWidth=1;lucidId=SF1OhaQ1grFW;fillColor=default;fontColor=#333333;strokeColor=default;verticalAlign=middle;horizontal=1;" parent="1" vertex="1">
          <mxGeometry x="30" y="450" width="160" height="30" as="geometry" />
        </mxCell>
        <mxCell id="7NIHptc-WmO7eENYxRa7-9" value="" style="html=1;jettySize=18;whiteSpace=wrap;fontSize=13;strokeColor=#3a414a;strokeOpacity=100;strokeWidth=0.8;rounded=1;arcSize=12;edgeStyle=orthogonalEdgeStyle;startArrow=none;endArrow=block;endFill=1;exitX=0;exitY=0.5;entryX=0.5;entryY=0;lucidId=RF1OCfXK_F4R;exitDx=0;exitDy=0;entryDx=0;entryDy=0;" parent="1" source="R9qcSIOGfT1Ncwx8mGfi-32" target="7NIHptc-WmO7eENYxRa7-6" edge="1">
          <mxGeometry width="100" height="100" relative="1" as="geometry">
            <Array as="points" />
            <mxPoint x="268" y="410" as="sourcePoint" />
            <mxPoint x="125" y="370" as="targetPoint" />
          </mxGeometry>
        </mxCell>
        <mxCell id="7NIHptc-WmO7eENYxRa7-10" value="elec:hasLongitude" style="text;html=1;resizable=0;labelBackgroundColor=default;align=center;verticalAlign=middle;fontStyle=1;fontColor=#333333;fontSize=13.3;" parent="7NIHptc-WmO7eENYxRa7-9" vertex="1">
          <mxGeometry x="-0.2958020110584042" relative="1" as="geometry">
            <mxPoint x="-78" y="14" as="offset" />
          </mxGeometry>
        </mxCell>
        <mxCell id="7NIHptc-WmO7eENYxRa7-11" value="" style="html=1;jettySize=18;whiteSpace=wrap;fontSize=13;strokeColor=#3a414a;strokeOpacity=100;strokeWidth=0.8;rounded=1;arcSize=12;edgeStyle=orthogonalEdgeStyle;startArrow=none;endArrow=block;endFill=1;exitX=0;exitY=0;entryX=0.5;entryY=1.012;entryPerimeter=0;lucidId=RF1OCfXK_F4R;exitDx=0;exitDy=0;" parent="1" source="R9qcSIOGfT1Ncwx8mGfi-25" target="7NIHptc-WmO7eENYxRa7-13" edge="1">
          <mxGeometry width="100" height="100" relative="1" as="geometry">
            <Array as="points">
              <mxPoint x="616" y="340" />
              <mxPoint x="560" y="340" />
            </Array>
            <mxPoint x="923.36" y="140" as="sourcePoint" />
          </mxGeometry>
        </mxCell>
        <mxCell id="7NIHptc-WmO7eENYxRa7-12" value="elec:hasLatitude" style="text;html=1;resizable=0;labelBackgroundColor=default;align=center;verticalAlign=middle;fontStyle=1;fontColor=#333333;fontSize=13.3;" parent="7NIHptc-WmO7eENYxRa7-11" vertex="1">
          <mxGeometry x="-0.2958020110584042" relative="1" as="geometry">
            <mxPoint x="-53" y="-10" as="offset" />
          </mxGeometry>
        </mxCell>
        <mxCell id="7NIHptc-WmO7eENYxRa7-13" value="latitude^^xsd:float" style="html=1;overflow=block;blockSpacing=1;whiteSpace=wrap;fontSize=16.7;spacing=9;rounded=1;absoluteArcSize=1;arcSize=9;strokeWidth=1;lucidId=SF1OhaQ1grFW;fillColor=default;fontColor=#333333;strokeColor=default;verticalAlign=middle;horizontal=1;" parent="1" vertex="1">
          <mxGeometry x="485" y="250" width="150" height="30" as="geometry" />
        </mxCell>
        <mxCell id="7NIHptc-WmO7eENYxRa7-14" value="longitude^^xsd:float" style="html=1;overflow=block;blockSpacing=1;whiteSpace=wrap;fontSize=16.7;spacing=9;rounded=1;absoluteArcSize=1;arcSize=9;strokeWidth=1;lucidId=SF1OhaQ1grFW;fillColor=default;fontColor=#333333;strokeColor=default;verticalAlign=middle;horizontal=1;" parent="1" vertex="1">
          <mxGeometry x="660" y="250" width="160" height="30" as="geometry" />
        </mxCell>
        <mxCell id="7NIHptc-WmO7eENYxRa7-15" value="" style="html=1;jettySize=18;whiteSpace=wrap;fontSize=13;strokeColor=#3a414a;strokeOpacity=100;strokeWidth=0.8;rounded=1;arcSize=12;edgeStyle=orthogonalEdgeStyle;startArrow=none;endArrow=block;endFill=1;exitX=1;exitY=0;lucidId=RF1OCfXK_F4R;exitDx=0;exitDy=0;" parent="1" source="R9qcSIOGfT1Ncwx8mGfi-25" edge="1">
          <mxGeometry width="100" height="100" relative="1" as="geometry">
            <Array as="points">
              <mxPoint x="680" y="340" />
              <mxPoint x="740" y="340" />
            </Array>
            <mxPoint x="925.36" y="155" as="sourcePoint" />
            <mxPoint x="740" y="280" as="targetPoint" />
          </mxGeometry>
        </mxCell>
        <mxCell id="7NIHptc-WmO7eENYxRa7-16" value="elec:hasLongitude" style="text;html=1;resizable=0;labelBackgroundColor=default;align=center;verticalAlign=middle;fontStyle=1;fontColor=#333333;fontSize=13.3;" parent="7NIHptc-WmO7eENYxRa7-15" vertex="1">
          <mxGeometry x="-0.2958020110584042" relative="1" as="geometry">
            <mxPoint x="56" y="-10" as="offset" />
          </mxGeometry>
        </mxCell>
      </root>
    </mxGraphModel>
  </diagram>
</mxfile>
